# xmcd
#
# Track frame offsets: 
#        150
#        17748
#        34848
#
# Disc length: 727 seconds
#
# Revision: 3
# Processed by: cddbd v1.5.2PL0 Copyright (c) Steve Scherf et al.
# Submitted via: ExactAudioCopy v0.99pb4
#
DISCID=1b02d503
DTITLE=The White Stripes - You Don't Know What Love Is (You Just Do As
DTITLE=You're Told)
DYEAR=2007
DGENRE=Punk Rock
TTITLE0=You Don't Know What Love Is (You Just Do As You're Told) (Albu
TTITLE0=m Version)
TTITLE1=You Don't Know What Love Is (You Just Do As You're Told) (Frat
TTITLE1=Rock Version)
TTITLE2=A Martyr For My Love For You (Acoustic)
EXTD=YEAR: 2001 ID3G: 9
EXTT0=
EXTT1=
EXTT2=
PLAYORDER=
